<svg id="Layer_1" data-name="Layer 1" xmlns="http://www.w3.org/2000/svg" viewBox="0 0 1500 1500"><defs><style>.cls-1{fill:#0d1321;}.cls-2{fill:#f72c25;}.cls-3{fill:#435058;}</style></defs><title>Icon_COLOR-T</title><path class="cls-1" d="M318.51,703.49c-36.72.81-61.61,13.82-61.61,52.58,0,50.4,42,52.44,61.82,51.62h31.21v28.15a2.08,2.08,0,0,1-2.24,1.84H321.17c-40.6,0-95.68-11.83-95.68-81.61,0-72.42,55.69-81.6,95.68-81.6h26.52c1.43,0,2.24,1,2.65,3.47l-.41,25.55Z"/><path class="cls-1" d="M879.53,809.32v26.52a2.08,2.08,0,0,1-2.24,1.84H791.4a2.24,2.24,0,0,1-2.24-1.84V676.3a2.24,2.24,0,0,1,2.24-1.83h26.93a2,2,0,0,1,2,1.83v131h56.92A2.09,2.09,0,0,1,879.53,809.32Z"/><path class="cls-1" d="M1013.84,837.62c32.6-1.15,57.27-20.35,58.06-52.81C1071.06,816.49,1045.53,836.39,1013.84,837.62Z"/><path class="cls-1" d="M1012.15,807.66c14.79-.48,29-8.44,29-24.46V783C1039.33,798.6,1026.65,807.13,1012.15,807.66Zm-62.63-22.85c.8,32.46,25.46,51.66,58.06,52.81C975.89,836.39,950.36,816.49,949.52,784.81Z"/><path class="cls-1" d="M1071.91,676.3V783.2c0,.54,0,1.08,0,1.61-.84,31.68-26.37,51.58-58.06,52.81-1,0-2.08.06-3.13.06s-2.1,0-3.13-.06c-31.69-1.23-57.22-21.13-58.06-52.81,0-.53,0-1.07,0-1.61V676.3a2.19,2.19,0,0,1,2-1.83h26.52a2.08,2.08,0,0,1,2.24,1.83V783c1.78,15.6,14.46,24.13,29,24.66l1.44,0,1.44,0c14.79-.48,29-8.44,29-24.46V676.3a2.08,2.08,0,0,1,2.24-1.83h26.52A2.19,2.19,0,0,1,1071.91,676.3Z"/><path class="cls-1" d="M1244.42,790.68c0,28.31-21,44.94-45,47.29a56.25,56.25,0,0,1-7.12.46c-28.12,0-49.88-18.89-50.29-46.8-.2-.62.83-1.64,2.26-1.64h26.3a2.18,2.18,0,0,1,2.14,1.56c.4,11.13,9,16.4,19.14,16.4h1.5c10.69-.41,19.27-7.09,19.27-19.68a17,17,0,0,0-2.63-9.37,23,23,0,0,0-13.39-8.15,26.61,26.61,0,0,0-4.29-.35,59.67,59.67,0,0,1-24-5.49c-17.06-7.92-26.4-23.76-26.4-42.84,0-30.12,23.81-46.93,49.46-47.31,1.44-.12,2.87-.17,4.31-.17,27.82,0,47.11,19.39,47.52,46.87.2.61-.81,1.62-2.23,1.62h-25.14a2.31,2.31,0,0,1-2.26-1.63c-.41-11.65-9.44-17.15-20.12-17.15-11.29,0-20.52,6.74-20.52,19.81a17.14,17.14,0,0,0,1.94,8.18,22.92,22.92,0,0,0,17.39,9.67,50.3,50.3,0,0,1,6.15.4h.08a60.56,60.56,0,0,1,19.18,5.22C1235,755.54,1244.42,771.48,1244.42,790.68Z"/><path class="cls-2" d="M879.13,887.09c-281.53,179.53-648.75,311.73-723.77,242.74S269.55,887.09,269.55,887.09h35.06s-195.26,183-126.59,230.64,484.46-110.68,655.62-230.64Z"/><path class="cls-2" d="M620.87,612.91c281.53-179.53,648.75-311.73,723.77-242.74s-114.19,242.74-114.19,242.74h-35.06s195.26-183,126.59-230.64S837.52,493,666.36,612.91Z"/><path class="cls-3" d="M383.72,932q7-7.51,13.23-14.62Q390.68,924.65,383.72,932Z"/><path class="cls-3" d="M383,932.75c-4.41,4.69-7.49,7.78-9.44,9.52Q378.43,937.53,383,932.75Z"/><path class="cls-3" d="M459.69,750c8.56-18.27,33.46-73.44,33.46-73.44.14-.41,3.7-9.94,9-24,6-15.86,14.07-37.49,22-58.46h0a6.93,6.93,0,0,0-.94-2.57,21.86,21.86,0,0,1-2.48-9.68c0-5.18-.68-5.63-11.27-5.63-7.67,0-11.72-1.14-12.62-3.16-.68-1.58,4.28-11,10.81-20.74l11.95-17.57L521,501.8c1.13-25.69,2.71-38.31,8.12-59.27,3.82-14.6,8-27.47,8.13-27.47s4.32,12.87,8.14,27.47c5.41,21,7,33.58,8.11,59.27l1.35,32.9,12,17.57c6.54,9.7,11.49,19.16,10.81,20.74-.89,2-5,3.16-12.61,3.16-10.59,0-11.27.45-11.27,5.63a22,22,0,0,1-2.48,9.68c-.26.43-.94,1.29-.94,1.29h0l-1.63,292.68L516.81,932V694.51L504.16,725l-4.09,8.73-48.54,103.6s-13.57,33-54.51,80a.46.46,0,0,1-.07.07q-6.18,7.1-13.23,14.62l-.73.77q-4.58,4.77-9.44,9.52a338.35,338.35,0,0,1-42.8,35.4H297.3C368.21,928.43,409.44,857,422.5,831.36"/><path class="cls-1" d="M698.3,838H623a2.24,2.24,0,0,1-2.25-1.83V676.66a2.24,2.24,0,0,1,2.25-1.83H698.3v29.58H652v36.92l46.8-.31c1.22,0,1.63.62,1.63,1.64v26.92a1.5,1.5,0,0,1-1.63,1.64l-46.8-.31v36.73H698.3Z"/></svg>